<svg width="75" height="75" viewBox="0 0 75 75" fill="none" xmlns="http://www.w3.org/2000/svg">
<path d="M4.78578 28.0822C4.60721 28.1518 4.50007 28.2429 4.46436 28.3482L4.78578 28.0822ZM4.46436 28.3482V65.1822C4.46436 69.6625 5.33936 70.5357 9.8215 70.5357H22.3215C26.8036 70.5357 27.6786 69.7125 27.6786 65.1786V50.8929H43.7501V65.2339C43.7501 69.7161 44.6608 70.5536 49.1072 70.5357C49.1786 70.5911 61.6072 70.5357 61.6072 70.5357C66.1233 70.5357 66.9644 69.5964 66.9644 65.1839V29.4554C66.9644 29.3125 66.8036 29.1875 66.4822 29.0447L35.7144 2.67859L4.78578 28.0822L4.46436 28.3482Z" fill="#F2F2F2"/>
</svg>
